<?xml version="1.0" encoding="UTF-8" standalone="no"?>
<!-- Created with Inkscape (http://www.inkscape.org/) -->

<svg
   xmlns:dc="http://purl.org/dc/elements/1.1/"
   xmlns:cc="http://creativecommons.org/ns#"
   xmlns:rdf="http://www.w3.org/1999/02/22-rdf-syntax-ns#"
   xmlns:svg="http://www.w3.org/2000/svg"
   xmlns="http://www.w3.org/2000/svg"
   xmlns:sodipodi="http://sodipodi.sourceforge.net/DTD/sodipodi-0.dtd"
   xmlns:inkscape="http://www.inkscape.org/namespaces/inkscape"
   width="744.09448819"
   height="1052.3622047"
   id="svg2"
   version="1.1"
   inkscape:version="0.48.4 r9939"
   inkscape:export-filename="/home/wyatt/Documents/Programming/Workspace/ca.digitalcave.buddilive/WebContent/img/logo-title-small.png"
   inkscape:export-xdpi="75.352936"
   inkscape:export-ydpi="75.352936"
   sodipodi:docname="logo.svg">
  <defs
     id="defs4">
    <marker
       inkscape:stockid="SquareL"
       orient="auto"
       refY="0.0"
       refX="0.0"
       id="SquareL"
       style="overflow:visible">
      <path
         id="path3913"
         d="M -5.0,-5.0 L -5.0,5.0 L 5.0,5.0 L 5.0,-5.0 L -5.0,-5.0 z "
         style="fill-rule:evenodd;stroke:#000000;stroke-width:1.0pt"
         transform="scale(0.8)" />
    </marker>
    <marker
       inkscape:stockid="DotS"
       orient="auto"
       refY="0.0"
       refX="0.0"
       id="DotS"
       style="overflow:visible">
      <path
         id="path3910"
         d="M -2.5,-1.0 C -2.5,1.7600000 -4.7400000,4.0 -7.5,4.0 C -10.260000,4.0 -12.5,1.7600000 -12.5,-1.0 C -12.5,-3.7600000 -10.260000,-6.0 -7.5,-6.0 C -4.7400000,-6.0 -2.5,-3.7600000 -2.5,-1.0 z "
         style="fill-rule:evenodd;stroke:#000000;stroke-width:1.0pt"
         transform="scale(0.2) translate(7.4, 1)" />
    </marker>
    <filter
       inkscape:collect="always"
       id="filter4669"
       x="-0.04345988"
       width="1.0869198"
       y="-0.20972933"
       height="1.4194587">
      <feGaussianBlur
         inkscape:collect="always"
         stdDeviation="3.3339972"
         id="feGaussianBlur4671" />
    </filter>
  </defs>
  <sodipodi:namedview
     id="base"
     pagecolor="#ffffff"
     bordercolor="#666666"
     borderopacity="1.0"
     inkscape:pageopacity="0.0"
     inkscape:pageshadow="2"
     inkscape:zoom="2.8"
     inkscape:cx="352.54535"
     inkscape:cy="853.03188"
     inkscape:document-units="px"
     inkscape:current-layer="g4816"
     showgrid="false"
     inkscape:window-width="1920"
     inkscape:window-height="1021"
     inkscape:window-x="-4"
     inkscape:window-y="-3"
     inkscape:window-maximized="1" />
  <metadata
     id="metadata7">
    <rdf:RDF>
      <cc:Work
         rdf:about="">
        <dc:format>image/svg+xml</dc:format>
        <dc:type
           rdf:resource="http://purl.org/dc/dcmitype/StillImage" />
        <dc:title />
      </cc:Work>
    </rdf:RDF>
  </metadata>
  <g
     inkscape:label="Layer 1"
     inkscape:groupmode="layer"
     id="layer1">
    <g
       id="g4816"
       transform="translate(-13.214286,-1.0714286)">
      <g
         transform="translate(198.57143,-112.85714)"
         style="font-size:40px;font-style:normal;font-weight:normal;line-height:125%;letter-spacing:0px;word-spacing:0px;fill:#000000;fill-opacity:1;stroke:#000000;stroke-linecap:round;stroke-linejoin:round;stroke-opacity:1;filter:url(#filter4669);font-family:Sans"
         id="flowRoot4653">
        <path
           d="m 114.24925,353.16357 c -5e-5,4.848 -3.64805,7.272 -10.944,7.272 l -29.52,0 0,-37.152 31.824,0 c 5.56795,4e-5 8.35195,2.40003 8.352,7.2 l 0,4.536 c -5e-5,3.64802 -2.13605,5.73602 -6.408,6.264 4.46395,0.57602 6.69595,2.95202 6.696,7.128 l 0,4.752 m -8.28,-17.64 0,-3.528 c -4e-5,-1.77597 -1.32004,-2.66397 -3.96,-2.664 l -19.728,0 0,8.856 19.728,0 c 2.63996,2e-5 3.95996,-0.88798 3.96,-2.664 m 0.216,14.904 0,-2.808 c -4e-5,-1.39199 -0.33604,-2.27999 -1.008,-2.664 -0.62404,-0.43198 -1.68004,-0.64798 -3.168,-0.648 l -19.728,0 0,9.432 19.728,0 c 1.48796,10e-6 2.54396,-0.19199 3.168,-0.576 0.67196,-0.43199 1.00796,-1.34399 1.008,-2.736"
           style="font-size:72px;font-variant:normal;font-weight:bold;font-stretch:normal;text-align:start;line-height:125%;letter-spacing:-7.07106733;writing-mode:lr-tb;text-anchor:start;fill:#000000;stroke:#000000;font-family:BankGothic;-inkscape-font-specification:BankGothic Bold"
           id="path3032" />
        <path
           d="m 157.28456,353.23557 c -5e-5,2.88 -0.60005,4.8 -1.8,5.76 -1.15204,0.96 -3.21604,1.44 -6.192,1.44 l -20.16,0 c -2.97601,0 -5.04001,-0.48 -6.192,-1.44 -1.15201,-0.96 -1.72801,-2.88 -1.728,-5.76 l 0,-23.256 7.416,0 0,24.768 21.168,0 0,-24.768 7.488,0 0,23.256"
           style="font-size:72px;font-variant:normal;font-weight:bold;font-stretch:normal;text-align:start;line-height:125%;letter-spacing:-7.07106733;writing-mode:lr-tb;text-anchor:start;fill:#000000;stroke:#000000;font-family:BankGothic;-inkscape-font-specification:BankGothic Bold"
           id="path3034" />
        <path
           d="m 202.59011,345.09957 c -4e-5,10.224 -6.72003,15.336 -20.16,15.336 l -18.648,0 0,-30.456 20.52,0 c 5.42397,3e-5 9.71997,1.12803 12.888,3.384 3.59996,2.64002 5.39996,6.55202 5.4,11.736 m -7.632,-0.36 c -3e-5,-6.19198 -3.52803,-9.28798 -10.584,-9.288 l -13.104,0 0,19.296 9.576,0 c 4.55998,1e-5 7.84797,-0.52799 9.864,-1.584 2.83197,-1.53599 4.24797,-4.34399 4.248,-8.424"
           style="font-size:72px;font-variant:normal;font-weight:bold;font-stretch:normal;text-align:start;line-height:125%;letter-spacing:-7.07106733;writing-mode:lr-tb;text-anchor:start;fill:#000000;stroke:#000000;font-family:BankGothic;-inkscape-font-specification:BankGothic Bold"
           id="path3036" />
        <path
           d="m 245.44093,345.09957 c -5e-5,10.224 -6.72004,15.336 -20.16,15.336 l -18.648,0 0,-30.456 20.52,0 c 5.42397,3e-5 9.71996,1.12803 12.888,3.384 3.59996,2.64002 5.39995,6.55202 5.4,11.736 m -7.632,-0.36 c -4e-5,-6.19198 -3.52804,-9.28798 -10.584,-9.288 l -13.104,0 0,19.296 9.576,0 c 4.55997,1e-5 7.84797,-0.52799 9.864,-1.584 2.83196,-1.53599 4.24796,-4.34399 4.248,-8.424"
           style="font-size:72px;font-variant:normal;font-weight:bold;font-stretch:normal;text-align:start;line-height:125%;letter-spacing:-7.07106733;writing-mode:lr-tb;text-anchor:start;fill:#000000;stroke:#000000;font-family:BankGothic;-inkscape-font-specification:BankGothic Bold"
           id="path3038" />
        <path
           d="m 256.89973,360.43557 -7.416,0 0,-30.456 7.416,0 0,30.456"
           style="font-size:72px;font-variant:normal;font-weight:bold;font-stretch:normal;text-align:start;line-height:125%;letter-spacing:-7.07106733;writing-mode:lr-tb;text-anchor:start;fill:#000000;stroke:#000000;font-family:BankGothic;-inkscape-font-specification:BankGothic Bold"
           id="path3040" />
      </g>
      <g
         transform="translate(198.57143,-112.85714)"
         style="font-size:40px;font-style:normal;font-weight:normal;line-height:125%;letter-spacing:0px;word-spacing:0px;fill:#ffffff;fill-opacity:1;stroke:#000000;stroke-linecap:round;stroke-linejoin:round;stroke-opacity:1;font-family:Sans"
         id="flowRoot2985">
        <path
           d="m 114.24925,353.16357 c -5e-5,4.848 -3.64805,7.272 -10.944,7.272 l -29.52,0 0,-37.152 31.824,0 c 5.56795,4e-5 8.35195,2.40003 8.352,7.2 l 0,4.536 c -5e-5,3.64802 -2.13605,5.73602 -6.408,6.264 4.46395,0.57602 6.69595,2.95202 6.696,7.128 l 0,4.752 m -8.28,-17.64 0,-3.528 c -4e-5,-1.77597 -1.32004,-2.66397 -3.96,-2.664 l -19.728,0 0,8.856 19.728,0 c 2.63996,2e-5 3.95996,-0.88798 3.96,-2.664 m 0.216,14.904 0,-2.808 c -4e-5,-1.39199 -0.33604,-2.27999 -1.008,-2.664 -0.62404,-0.43198 -1.68004,-0.64798 -3.168,-0.648 l -19.728,0 0,9.432 19.728,0 c 1.48796,10e-6 2.54396,-0.19199 3.168,-0.576 0.67196,-0.43199 1.00796,-1.34399 1.008,-2.736"
           style="font-size:72px;font-variant:normal;font-weight:bold;font-stretch:normal;text-align:start;line-height:125%;letter-spacing:-7.07106733;writing-mode:lr-tb;text-anchor:start;fill:#ffffff;stroke:#000000;font-family:BankGothic;-inkscape-font-specification:BankGothic Bold"
           id="path3043" />
        <path
           d="m 157.28456,353.23557 c -5e-5,2.88 -0.60005,4.8 -1.8,5.76 -1.15204,0.96 -3.21604,1.44 -6.192,1.44 l -20.16,0 c -2.97601,0 -5.04001,-0.48 -6.192,-1.44 -1.15201,-0.96 -1.72801,-2.88 -1.728,-5.76 l 0,-23.256 7.416,0 0,24.768 21.168,0 0,-24.768 7.488,0 0,23.256"
           style="font-size:72px;font-variant:normal;font-weight:bold;font-stretch:normal;text-align:start;line-height:125%;letter-spacing:-7.07106733;writing-mode:lr-tb;text-anchor:start;fill:#ffffff;stroke:#000000;font-family:BankGothic;-inkscape-font-specification:BankGothic Bold"
           id="path3045" />
        <path
           d="m 202.59011,345.09957 c -4e-5,10.224 -6.72003,15.336 -20.16,15.336 l -18.648,0 0,-30.456 20.52,0 c 5.42397,3e-5 9.71997,1.12803 12.888,3.384 3.59996,2.64002 5.39996,6.55202 5.4,11.736 m -7.632,-0.36 c -3e-5,-6.19198 -3.52803,-9.28798 -10.584,-9.288 l -13.104,0 0,19.296 9.576,0 c 4.55998,1e-5 7.84797,-0.52799 9.864,-1.584 2.83197,-1.53599 4.24797,-4.34399 4.248,-8.424"
           style="font-size:72px;font-variant:normal;font-weight:bold;font-stretch:normal;text-align:start;line-height:125%;letter-spacing:-7.07106733;writing-mode:lr-tb;text-anchor:start;fill:#ffffff;stroke:#000000;font-family:BankGothic;-inkscape-font-specification:BankGothic Bold"
           id="path3047" />
        <path
           d="m 245.44093,345.09957 c -5e-5,10.224 -6.72004,15.336 -20.16,15.336 l -18.648,0 0,-30.456 20.52,0 c 5.42397,3e-5 9.71996,1.12803 12.888,3.384 3.59996,2.64002 5.39995,6.55202 5.4,11.736 m -7.632,-0.36 c -4e-5,-6.19198 -3.52804,-9.28798 -10.584,-9.288 l -13.104,0 0,19.296 9.576,0 c 4.55997,1e-5 7.84797,-0.52799 9.864,-1.584 2.83196,-1.53599 4.24796,-4.34399 4.248,-8.424"
           style="font-size:72px;font-variant:normal;font-weight:bold;font-stretch:normal;text-align:start;line-height:125%;letter-spacing:-7.07106733;writing-mode:lr-tb;text-anchor:start;fill:#ffffff;stroke:#000000;font-family:BankGothic;-inkscape-font-specification:BankGothic Bold"
           id="path3049" />
        <path
           d="m 256.89973,360.43557 -7.416,0 0,-30.456 7.416,0 0,30.456"
           style="font-size:72px;font-variant:normal;font-weight:bold;font-stretch:normal;text-align:start;line-height:125%;letter-spacing:-7.07106733;writing-mode:lr-tb;text-anchor:start;fill:#ffffff;stroke:#000000;font-family:BankGothic;-inkscape-font-specification:BankGothic Bold"
           id="path3051" />
      </g>
    </g>
    <g
       transform="matrix(1.0984047,0,0,1.0984047,106.43647,-178.96396)"
       style="font-size:110px;font-style:normal;font-variant:normal;font-weight:normal;font-stretch:normal;text-align:start;line-height:125%;letter-spacing:0px;word-spacing:0px;writing-mode:lr-tb;text-anchor:start;fill:#000000;fill-opacity:1;stroke:none;font-family:James Fajardo;-inkscape-font-specification:James Fajardo"
       id="flowRoot3781">
      <path
         d="m 331.22656,347.0111 c 0.71613,-0.64445 1.61131,-0.80559 2.68555,-0.4834 1.0742,0.28654 1.79034,0.93107 2.14844,1.9336 0.39386,1.00267 0.51918,2.54239 0.37597,4.61914 -0.14325,2.07689 -0.30438,3.6166 -0.4834,4.61914 -0.14324,1.00267 -0.51922,2.59609 -1.12792,4.78027 -0.60875,2.1485 -1.14586,3.6524 -1.61133,4.51172 -0.46551,0.82362 -1.50392,3.00787 -3.11524,6.55274 -1.61134,3.54496 -3.07944,6.66019 -4.40429,9.3457 -1.28907,2.68558 -1.98732,4.29691 -2.09473,4.83398 -0.0716,0.53715 0.0537,0.93103 0.37598,1.18164 0.32225,0.21488 4.88768,-0.64449 13.69628,-2.57812 8.84438,-1.96937 14.35869,-3.27633 16.54297,-3.9209 2.22002,-0.6803 4.08199,-1.48596 5.58594,-2.41699 1.50386,-0.93095 1.73661,-0.82353 0.69824,0.32226 -1.03845,1.11007 -2.63187,2.20219 -4.78027,3.27637 -2.11267,1.07426 -3.61657,1.96944 -4.51172,2.68555 -0.85941,0.71618 -3.34801,1.96943 -7.46582,3.75976 -4.08205,1.75459 -7.82391,2.95413 -11.22559,3.59864 -3.36589,0.60875 -6.01563,1.30699 -7.94921,2.09472 -1.9336,0.75198 -3.47332,1.09215 -4.61914,1.02051 -1.14584,-0.1074 -2.14844,-0.37595 -3.00782,-0.80566 -0.85937,-0.46547 -1.36067,-1.0742 -1.5039,-1.82617 -0.14323,-0.78774 0.19694,-2.29164 1.0205,-4.51172 0.85938,-2.25583 1.79037,-4.22523 2.79297,-5.90821 1.0026,-1.71871 2.4886,-4.81604 4.45801,-9.29199 1.96939,-4.51167 3.34797,-7.75222 4.13574,-9.72168 0.82356,-1.96934 1.30696,-3.33002 1.4502,-4.08203 0.14321,-0.7877 -0.12534,-0.85931 -0.80567,-0.21484 -0.68035,0.60878 -1.18165,0.60878 -1.5039,0 -0.32228,-0.64447 -0.51922,-1.30691 -0.59082,-1.98731 -0.0716,-0.68027 0.12531,-1.66497 0.59082,-2.9541 0.46548,-1.3248 1.11001,-2.90032 1.93359,-4.72656 0.85936,-1.86191 1.62922,-3.09726 2.30957,-3.70606"
         style="letter-spacing:-1.26269102;fill:#000000"
         id="path3023" />
      <path
         d="m 366.11133,353.93981 c 0.78774,0.6446 1.25324,2.05899 1.39649,4.24317 0.17901,2.1485 0.93097,4.26112 2.25586,6.33789 1.32484,2.04107 2.88246,3.6703 4.67285,4.88769 1.79033,1.2175 3.41956,2.07688 4.88769,2.57813 1.50388,0.50135 1.46807,0.62668 -0.10742,0.37598 -1.57555,-0.28641 -3.15107,-0.91304 -4.72656,-1.87989 -1.53974,-1.00255 -3.20478,-2.47065 -4.99512,-4.40429 -1.79038,-1.96935 -3.09735,-3.40164 -3.9209,-4.29688 -0.82358,-0.93093 -1.4144,-1.45013 -1.77246,-1.55762 -0.32228,-0.10736 -0.60874,-0.17897 -0.85937,-0.21484 -0.21486,-0.0716 -0.75197,-0.42963 -1.61133,-1.07422 -0.82358,-0.68027 -1.12794,-1.50384 -0.91309,-2.4707 0.25064,-0.96673 0.57291,-1.68288 0.9668,-2.14844 0.39387,-0.46543 1.0742,-0.8056 2.04102,-1.02051 1.00258,-0.25058 1.89776,-0.0357 2.68554,0.64453 m -8.59375,16.27442 c 0.78775,-0.17899 1.68293,-0.12528 2.68555,0.16113 1.0384,0.28651 1.21743,1.32492 0.53711,3.11524 -0.64454,1.79041 -1.36069,4.11788 -2.14844,6.98242 -0.78777,2.86462 -1.53972,5.19209 -2.25586,6.98242 -0.68034,1.7904 -1.4502,3.34801 -2.30957,4.67285 -0.85938,1.28909 -1.68295,1.98733 -2.4707,2.09473 -0.78776,0.10745 -1.34278,0.0895 -1.66504,-0.0537 -0.28646,-0.17901 -0.30436,-1.02048 -0.0537,-2.52442 0.25065,-1.50387 0.76985,-3.79554 1.55762,-6.875 0.82356,-3.11519 1.59342,-5.81864 2.30957,-8.11035 0.71614,-2.29162 0.71614,-3.45536 0,-3.49121 -0.68035,-0.0716 -0.41179,-0.53706 0.80566,-1.39648 1.25325,-0.85933 2.25585,-1.37853 3.00781,-1.55762"
         style="letter-spacing:-1.26269102;fill:#000000"
         id="path3025" />
      <path
         d="m 383.21778,372.57751 c 0.39386,-0.32222 0.87726,-0.46545 1.4502,-0.42969 0.57289,5e-5 1.07419,0.21489 1.5039,0.64453 0.42967,0.39393 0.96677,0.91314 1.61133,1.55762 0.64451,0.64458 1.53969,1.07426 2.68555,1.28906 1.1458,0.17908 3.07939,0.0179 5.80078,-0.4834 2.72132,-0.53706 2.70341,-0.44754 -0.0537,0.26856 -2.75719,0.71619 -5.04886,1.28911 -6.875,1.71875 -1.79039,0.42973 -3.16897,1.12797 -4.13574,2.09473 -0.93102,0.96683 -2.00523,2.20218 -3.22266,3.70605 -1.21747,1.50394 -2.61395,3.43753 -4.18945,5.80078 -1.57554,2.36331 -2.61395,3.97464 -3.11524,4.83399 -0.50131,0.8594 -1.14584,1.57554 -1.93359,2.14843 -0.78777,0.57294 -1.64715,0.64456 -2.57813,0.21485 -0.93099,-0.42966 -1.61133,-1.0742 -2.04101,-1.9336 -0.4297,-0.85934 -0.68035,-1.86195 -0.75196,-3.00781 -0.0716,-1.1458 -0.42969,-2.64971 -1.07421,-4.51172 -0.64454,-1.86194 -1.4323,-3.6523 -2.36329,-5.37109 -0.89518,-1.71871 -1.11002,-3.00777 -0.64453,-3.86719 0.5013,-0.85933 1.25326,-1.36063 2.25586,-1.50391 1.0026,-0.14318 1.86198,0.21489 2.57813,1.07422 0.71614,0.85942 1.39647,2.2201 2.04101,4.08203 0.64453,1.82621 1.05631,3.2227 1.23535,4.18946 0.17903,0.93102 0.5371,1.21748 1.07422,0.85937 0.5371,-0.35803 2.20214,-2.43486 4.99512,-6.23047 2.79295,-3.79552 4.35057,-5.85444 4.67285,-6.17675 0.32225,-0.35803 0.68032,-0.68029 1.07422,-0.9668"
         style="letter-spacing:-1.26269102;fill:#000000"
         id="path3027" />
      <path
         d="m 399.03517,370.42907 c 2.39908,-0.17898 3.84927,0.2328 4.35059,1.23535 0.53709,0.96685 0.78774,2.2201 0.75195,3.75977 -0.0358,1.50395 -0.75197,2.79301 -2.14844,3.86719 -1.3965,1.03845 -3.24057,2.07686 -5.53222,3.11523 -0.64454,0.25069 -1.23536,0.39392 -1.77246,0.42969 -0.50131,4e-5 -0.931,-0.0179 -1.28907,-0.0537 -0.32227,-0.0716 -0.59082,-0.12529 -0.80566,-0.16114 -0.17904,-0.0716 -0.28647,-0.0537 -0.32227,0.0537 -0.64453,1.03844 -0.9847,2.07685 -1.0205,3.11523 -1e-5,1.03845 0.34016,2.00524 1.0205,2.90039 0.71614,0.85941 1.5039,1.36071 2.36328,1.50391 0.85937,0.14326 1.75455,0.12535 2.68555,-0.0537 0.93098,-0.21482 2.64973,-0.84144 5.15625,-1.87989 2.50649,-1.03837 4.24315,-2.00517 5.20996,-2.90039 1.00258,-0.93095 1.95148,-1.82613 2.84668,-2.68554 0.89516,-0.85934 1.02048,-0.85934 0.37598,0 -0.64456,0.85941 -1.45022,1.89782 -2.41699,3.11523 -0.93101,1.21748 -2.11265,2.43493 -3.54493,3.65234 -1.3965,1.18167 -2.54233,2.09476 -3.4375,2.73926 -0.89519,0.64456 -2.09473,1.23538 -3.59863,1.77246 -1.46811,0.50133 -2.9183,0.66246 -4.35058,0.4834 -1.4323,-0.21482 -2.50652,-0.55498 -3.22266,-1.02051 -0.71615,-0.46546 -1.37858,-1.02048 -1.98731,-1.66504 -0.60872,-0.6445 -1.11002,-1.39645 -1.5039,-2.25586 -0.39388,-0.89515 -0.59082,-2.09469 -0.59082,-3.59863 -0.0358,-1.53968 0.30436,-3.20471 1.02051,-4.99512 0.75195,-1.79032 1.59342,-3.27632 2.52441,-4.458 0.93099,-1.1816 2.18424,-2.36324 3.75977,-3.54493 1.61132,-1.21739 3.43749,-2.04096 5.47851,-2.4707 m 0.0537,4.83399 c -0.25066,-0.25061 -0.87729,-0.12528 -1.87988,0.37597 -0.96681,0.50135 -1.68295,1.07427 -2.14844,1.71875 -0.42969,0.60877 -0.50131,1.05636 -0.21484,1.34278 0.28645,0.2865 0.89517,0.17907 1.82617,-0.32227 0.93098,-0.53707 1.66503,-1.05627 2.20215,-1.55762 0.5729,-0.53706 0.64452,-1.05627 0.21484,-1.55761"
         style="letter-spacing:-1.26269102;fill:#000000"
         id="path3029" />
    </g>
    <flowRoot
       xml:space="preserve"
       id="flowRoot3789"
       style="fill:black;stroke:none;stroke-opacity:1;stroke-width:1px;stroke-linejoin:miter;stroke-linecap:butt;fill-opacity:1;font-family:Sans;font-style:normal;font-weight:normal;font-size:40px;line-height:125%;letter-spacing:0px;word-spacing:0px"><flowRegion
         id="flowRegion3791"><rect
           id="rect3793"
           width="80.812202"
           height="47.477169"
           x="313.14728"
           y="409.90515" /></flowRegion><flowPara
         id="flowPara3795" /></flowRoot>    <g
       id="g4785"
       transform="translate(-7.1428571,1.4285714)">
      <g
         transform="translate(17.172593,-4.0406102)"
         style="stroke:#000000;stroke-opacity:1"
         id="g4771">
        <path
           transform="matrix(0.6748341,0,0,0.6748341,119.32151,68.984736)"
           style="fill:#9a0000;fill-opacity:1;stroke:#000000"
           d="m 173.57143,237.00504 c 0,27.0225 -21.90607,48.92857 -48.92857,48.92857 -27.022503,0 -48.928569,-21.90607 -48.928569,-48.92857 0,-27.02251 21.906066,-48.92857 48.928569,-48.92857 26.93278,0 48.80151,21.76623 48.92803,48.69871"
           id="path4761" />
        <path
           transform="matrix(0.6748341,0,0,0.6748341,119.32151,68.984736)"
           style="fill:#009d00;fill-opacity:1;stroke:#000000"
           d="m 131.80613,285.4064 c -26.73134,3.95617 -51.608473,-14.50676 -55.564638,-41.23809 -1.22523,-8.27874 -0.306505,-16.73336 2.668353,-24.55569 l 45.733015,17.39242 z"
           id="path4765" />
        <path
           transform="matrix(0.6748341,0,0,0.6748341,119.32151,68.984736)"
           style="fill:#ffe300;fill-opacity:1;stroke:#000000"
           d="m 76.866245,226.45042 c 5.829155,-26.3863 31.944935,-43.05115 58.331235,-37.222 7.70975,1.70321 14.89281,5.24692 20.93583,10.32857 l -31.49045,37.44805 z"
           id="path4767" />
        <path
           transform="matrix(0.6748341,0,0,0.6748341,119.32151,68.984736)"
           style="fill:#3838e9;fill-opacity:1;stroke:#000000"
           d="m 151.81188,196.3129 c 10.9253,7.29453 18.45842,18.67592 20.90413,31.58293 l -48.07315,9.10921 z"
           id="path4769" />
      </g>
      <g
         transform="matrix(1.7991713,0,0,1.7991713,-134.47076,-361.49634)"
         style="font-size:40px;font-style:normal;font-variant:normal;font-weight:900;font-stretch:normal;text-align:start;line-height:125%;letter-spacing:0px;word-spacing:0px;writing-mode:lr-tb;text-anchor:start;fill:#ffffff;fill-opacity:1;stroke:#000000;stroke-width:0.55581146;stroke-linecap:square;stroke-linejoin:round;stroke-miterlimit:4;stroke-opacity:1;font-family:Avenir Next;-inkscape-font-specification:Avenir Next Heavy"
         id="flowRoot4777">
        <path
           d="m 187.75875,312.38697 c 1.75998,0.1067 3.50665,0.5067 5.24,1.2 1.75998,0.66669 3.31998,1.60003 4.68,2.8 l -5.92,5.88 c -0.64002,-0.77331 -1.42669,-1.35998 -2.36,-1.76 -0.93335,-0.39998 -1.77335,-0.59998 -2.52,-0.6 -0.69335,2e-5 -1.25335,0.0934 -1.68,0.28 -0.42668,0.18669 -0.64001,0.50669 -0.64,0.96 -1e-5,0.42669 0.21332,0.74669 0.64,0.96 0.45332,0.18669 1.17332,0.44002 2.16,0.76 1.01332,0.32002 2.07998,0.69335 3.2,1.12 1.11998,0.40002 2.14665,0.93335 3.08,1.6 0.95998,0.64002 1.74664,1.45335 2.36,2.44 0.61331,0.96001 0.91997,2.14668 0.92,3.56 -3e-5,1.49334 -0.26669,2.81334 -0.8,3.96 -0.53336,1.14667 -1.24002,2.13334 -2.12,2.96 -0.88002,0.8 -1.90669,1.42667 -3.08,1.88 -1.14668,0.45333 -2.34668,0.73333 -3.6,0.84 l 0,3.04 -4.08,0 0,-3 c -1.86668,-0.13333 -3.68001,-0.56 -5.44,-1.28 -1.73334,-0.72 -3.22667,-1.61333 -4.48,-2.68 l 5.8,-6.16 c 0.31999,0.34668 0.70666,0.68001 1.16,1 0.47999,0.32001 0.98666,0.61334 1.52,0.88 0.53332,0.24001 1.07999,0.44001 1.64,0.6 0.58665,0.13334 1.17332,0.20001 1.76,0.2 0.53332,10e-6 1.01332,-0.0933 1.44,-0.28 0.45332,-0.18666 0.67998,-0.51999 0.68,-1 -2e-5,-0.26666 -0.08,-0.49332 -0.24,-0.68 -0.13335,-0.18666 -0.38668,-0.37332 -0.76,-0.56 -0.37335,-0.18666 -0.89335,-0.38666 -1.56,-0.6 -0.64001,-0.23999 -1.45334,-0.51999 -2.44,-0.84 -0.96001,-0.31999 -1.88001,-0.69332 -2.76,-1.12 -0.88001,-0.42665 -1.66667,-0.94665 -2.36,-1.56 -0.66667,-0.63998 -1.2,-1.39998 -1.6,-2.28 -0.4,-0.87998 -0.6,-1.91998 -0.6,-3.12 0,-1.41331 0.24,-2.65331 0.72,-3.72 0.48,-1.09331 1.11999,-2.01331 1.92,-2.76 0.79999,-0.77331 1.71999,-1.38664 2.76,-1.84 1.06666,-0.47997 2.15999,-0.8133 3.28,-1 l 0,-2.96 4.08,0 0,2.88 0,0"
           style=""
           id="path3020" />
      </g>
    </g>
  </g>
</svg>
